<?xml version="1.0" encoding="utf-8"?>
<!-- Generator: Adobe Illustrator 16.0.0, SVG Export Plug-In . SVG Version: 6.00 Build 0)  -->
<!DOCTYPE svg PUBLIC "-//W3C//DTD SVG 1.1//EN" "http://www.w3.org/Graphics/SVG/1.1/DTD/svg11.dtd">
<svg version="1.1" id="Capa_1" xmlns="http://www.w3.org/2000/svg" xmlns:xlink="http://www.w3.org/1999/xlink" x="0px" y="0px"
	 width="28.998px" height="29.979px" viewBox="0 0 28.998 29.979" enable-background="new 0 0 28.998 29.979" xml:space="preserve">
<path fill="#FFFFFF" d="M24.974,19.105v6.849H4.025v-6.849H0v8.861c0,1.111,0.9,2.012,2.016,2.012h24.967
	c1.115,0,2.016-0.899,2.016-2.012v-8.861H24.974z"/>
<path fill="#FFFFFF" d="M14.131,18.426l-5.764-6.965c0,0-0.877-0.828,0.074-0.828c0.951,0,3.248,0,3.248,0s0-0.557,0-1.416
	c0-2.449,0-6.906,0-8.723c0,0-0.129-0.494,0.615-0.494c0.75,0,4.035,0,4.572,0c0.536,0,0.523,0.416,0.523,0.416
	c0,1.762,0,6.373,0,8.742c0,0.768,0,1.266,0,1.266s1.843,0,2.998,0c1.154,0,0.285,0.867,0.285,0.867s-4.904,6.51-5.588,7.192
	C14.602,18.979,14.131,18.426,14.131,18.426z"/>
</svg>
